# AST/ASF file generated using VICON BodyLanguage
# -----------------------------------------------
:version 1.10
:name VICON
:units
  mass 1.0
  length 0.45
  angle deg
:documentation
   .ast/.asf automatically generated from VICON data using
   VICON BodyBuilder and BodyLanguage model FoxedUp or BRILLIANT.MOD
:root
   order TX TY TZ RX RY RZ
   axis XYZ
   position 0 0 0  
   orientation 0 0 0 
:bonedata
  begin
     id 1 
     name lhipjoint
     direction 0.653368 -0.678499 0.335782 
     length 2.51848 
     axis 0 0 0  XYZ
  end
  begin
     id 2 
     name lfemur
     direction 0.34202 -0.939693 0  
     length 6.57749  
     axis 0 0 20  XYZ
    dof rx ry rz
    limits (-160.0 20.0)
           (-70.0 70.0)
           (-60.0 70.0)
  end
  begin
     id 3 
     name ltibia
     direction 0.34202 -0.939693 0   
     length 7.94618   
     axis 0 0 20   XYZ
    dof rx
    limits (-10.0 170.0)
  end
  begin
     id 4 
     name lfoot
     direction 0.0811271 -0.222895 0.971461   
     length 2.31339   
     axis -90 7.62852e-016 20   XYZ
    dof rx rz
    limits (-45.0 90.0)
           (-70.0 20.0)
  end
  begin
     id 5 
     name ltoes
     direction 1.53568e-011 -4.21885e-011 1   
     length 1.15935   
     axis -90 7.62852e-016 20   XYZ
    dof rx
    limits (-90.0 20.0)
  end
  begin
     id 6 
     name rhipjoint
     direction -0.640058 -0.688614 0.340788   
     length 2.48149  
     axis 0 0 0  XYZ 
  end
  begin
     id 7 
     name rfemur
     direction -0.34202 -0.939693 0   
     length 6.57875   
     axis 0 0 -20   XYZ
    dof rx ry rz
    limits (-160.0 20.0)
           (-70.0 70.0)
           (-70.0 60.0)
  end
  begin
     id 8 
     name rtibia
     direction -0.34202 -0.939693 0   
     length 7.977   
     axis 0 0 -20   XYZ
    dof rx
    limits (-10.0 170.0)
 end
 begin
     id 9 
     name rfoot
     direction -0.0979793 -0.269196 0.958089   
     length 2.19857  
     axis -90 -7.62852e-016 -20   XYZ
    dof rx rz
    limits (-45.0 90.0)
           (-20.0 70.0)
  end
  begin
     id 10 
     name rtoes
     direction -1.53556e-011 -4.21868e-011 1   
     length 1.09838   
     axis -90 -7.62852e-016 -20   XYZ
    dof rx
    limits (-90.0 20.0)
  end
  begin
     id 11 
     name lowerback
     direction 0.0149039 0.998517 -0.0523597   
     length 2.10809   
     axis 0 0 0   XYZ
    dof rx ry rz
    limits (-20.0 45.0)
           (-30.0 30.0)
           (-30.0 30.0)
  end
  begin
     id 12 
     name upperback
     direction -0.00882659 0.999418 -0.0329624   
     length 2.1102   
     axis 0 0 0   XYZ
    dof rx ry rz
    limits (-20.0 45.0)
           (-30.0 30.0)
           (-30.0 30.0)
  end
  begin
     id 13 
     name thorax
     direction -0.0165585 0.999826 -0.0085833   
     length 2.11039   
     axis 0 0 0   XYZ
    dof rx ry rz
    limits (-20.0 45.0)
           (-30.0 30.0)
           (-30.0 30.0)
  end
  begin
     id 14 
     name lowerneck
     direction -0.0130877 0.999911 0.00260353   
     length 1.73253   
     axis 0 0 0   XYZ
    dof rx ry rz
    limits (-20.0 45.0)
           (-30.0 30.0)
           (-30.0 30.0)
  end
  begin
     id 15 
     name upperneck
     direction -0.0348454 0.928205 -0.370435   
     length 1.66692   
     axis 0 0 0   XYZ
    dof rx ry rz
    limits (-20.0 45.0)
           (-30.0 30.0)
           (-30.0 30.0)
  end
  begin
     id 16
     name head
     direction -0.00807754 0.992494 -0.122026  
     length 1.72765  
     axis 0 0 0   XYZ
    dof rx ry rz
    limits (-20.0 45.0)
           (-30.0 30.0)
           (-30.0 30.0)
  end
  begin
     id 17 
     name lclavicle
     direction 0.987582 0.144023 0.0627671  
     length 3.49235  
     axis 0 0 0   XYZ
    dof ry rz
    limits (-20.0 10.0)
           (0.0 20.0)
  end
  begin
     id 18 
     name lhumerus
     direction 1 -4.48958e-011 -1.45183e-018   
     length 5.41917   
     axis 180 -30 -90   XYZ
    dof rx ry rz
    limits (-60.0 90.0)
           (-90.0 90.0)
           (-90.0 90.0)
  end
  begin
     id 19
     name lradius
     direction 1 -4.48999e-011 5.75106e-027   
     length 2.44373   
     axis 180 -30 -90   XYZ
    dof rx
    limits (-10.0 170.0)
  end
  begin
     id 20
     name lwrist
     direction 1 -4.48987e-011 1.53461e-026   
     length 1.22186   
     axis -1.09697e-014 90 90   XYZ
    dof ry
    limits (-180.0 0.0)
 end
  begin
     id 21 
     name lhand
     direction 1 -4.48881e-011 3.06923e-026   
     length 0.727502   
     axis -1.95843e-014 90 90   XYZ
    dof rx rz
    limits (-90.0 90.0)
           (-45.0 45.0)
  end
  begin
     id 22 
     name lfingers
     direction 1 -4.48907e-011 6.13845e-026   
     length 0.586531   
     axis -3.91686e-014 90 90   XYZ
    dof rx
    limits (0.0 90.0)
  end
  begin
     id 23
     name lthumb
     direction 0.707107 -6.3487e-011 0.707107   
     length 0.842145   
     axis -90 45 2.85299e-015   XYZ
    dof rx rz
    limits (-45.0 45.0)
           (-45.0 45.0)
  end
  begin
     id 24 
     name rclavicle
     direction -0.980998 0.169556 0.0943023   
     length 3.29272  
     axis 0 0 0   XYZ 
    dof ry rz
    limits (-10.0 20.0)
           (-20.0 0.0)
  end
  begin
     id 25 
     name rhumerus
     direction -1 -1.83355e-005 2.45537e-005  
     length 5.58976   
     axis 180 30 90   XYZ
    dof rx ry rz
    limits (-90.0 60.0)
           (-90.0 90.0)
           (-90.0 90.0)
  end
  begin
     id 26 
     name rradius
     direction -1 -4.48967e-011 5.97228e-027   
     length 2.4806   
     axis 180 30 90   XYZ
    dof rx
    limits (-10.0 170.0)
  end
  begin
     id 27 
     name rwrist
     direction -1 -4.48963e-011 1.53461e-026   
     length 1.2403   
     axis -1.09697e-014 -90 -90   XYZ
    dof ry
    limits (-180.0 0.0)
  end
  begin
     id 28
     name rhand
     direction -1 -4.48881e-011 3.06923e-026   
     length 0.816009   
     axis -1.95843e-014 -90 -90   XYZ
    dof rx rz
    limits (-90.0 90.0)
           (-45.0 45.0)
  end
  begin
     id 29
     name rfingers
     direction -1 -4.49018e-011 6.13845e-026   
     length 0.657887   
     axis -3.91686e-014 -90 -90   XYZ
    dof rx
    limits (0.0 90.0)
  end
  begin
     id 30
     name rthumb
     direction -0.707107 -6.34872e-011 0.707107   
     length 0.944599   
     axis -90 -45 -2.85299e-015   XYZ
    dof rx rz
    limits (-45.0 45.0)
           (-45.0 45.0)
  end
:hierarchy
  begin
    root lhipjoint rhipjoint lowerback
    lhipjoint lfemur
    lfemur ltibia
    ltibia lfoot
    lfoot ltoes
    rhipjoint rfemur
    rfemur rtibia
    rtibia rfoot
    rfoot rtoes
    lowerback upperback
    upperback thorax
    thorax lowerneck lclavicle rclavicle
    lowerneck upperneck
    upperneck head
    lclavicle lhumerus
    lhumerus lradius
    lradius lwrist
    lwrist lhand lthumb
    lhand lfingers
    rclavicle rhumerus
    rhumerus rradius
    rradius rwrist
    rwrist rhand rthumb
    rhand rfingers
  end

#!OML:ASF F:\VICON\USERDATA\INSTALL\rory3\rory3.ASF
:FULLY-SPECIFIED
:DEGREES
141
root 4.49428 16.53 -15.0977 27.9425 7.18741 -4.29369
lowerback -17.154 -0.0143173 5.51326
upperback -10.6882 -0.754777 4.51348
thorax -1.86522 -0.487636 1.54898
lowerneck -13.7935 -2.57573 -0.624075
upperneck 42.2441 -2.75789 -2.60393
head 18.0275 -1.55124 -1.61469
rclavicle 2.89977e-014 -2.38542e-014
rhumerus -54.5545 22.5271 -87.7132
rradius 29.3936
rwrist -15.1351
rhand 13.2814 15.2154
rfingers 7.12502
rthumb 38.2315 -10.5204
lclavicle 2.89977e-014 -2.38542e-014
lhumerus -58.2586 -4.9294 92.1917
lradius 29.8394
lwrist 0.893215
lhand 6.16934 13.3824
lfingers 7.12502
lthumb 31.4847 40.6904
rfemur -41.0252 3.1567 34.9262
rtibia 29.9766
rfoot -29.7666 -30.2455
rtoes 17.3839
lfemur -18.4436 21.9817 -26.9266
ltibia 38.7867
lfoot 35.2169 39.5363
ltoes 17.091
142
root 4.48215 16.5385 -15.1256 28.8245 7.88889 -4.10041
lowerback -17.7386 -0.260208 5.33821
upperback -11.0299 -1.07547 4.61642
thorax -1.93376 -0.638912 1.70993
lowerneck -13.7707 -2.5881 -0.558873
upperneck 42.2771 -2.75408 -2.71346
head 18.0366 -1.55419 -1.67755
rclavicle 1.02374e-014 -1.59028e-015
rhumerus -54.4195 22.3211 -87.4595
rradius 29.4517
rwrist -15.0745
rhand 13.6514 14.4173
rfingers 7.12502
rthumb 38.5808 -11.2215
lclavicle 1.02374e-014 -1.59028e-015
lhumerus -58.1933 -4.96314 92.2852
lradius 29.8748
lwrist 1.17335
lhand 5.94848 13.2233
lfingers 7.12502
lthumb 31.2742 40.5721
rfemur -42.1922 3.70147 34.5961
rtibia 30.0387
rfoot -30.9185 -30.8948
rtoes 19.118
lfemur -19.6801 21.1655 -27.1683
ltibia 38.8824
lfoot 43.8695 31.2294
ltoes -0.522588
143
root 4.48267 16.5393 -15.131 28.889 7.96979 -4.07242
lowerback -17.6565 -0.295056 5.27234
upperback -11.1717 -1.0941 4.66195
thorax -2.12858 -0.646945 1.79634
lowerneck -13.6096 -2.6222 -0.607012
upperneck 42.3423 -2.80264 -2.6949
head 18.033 -1.57844 -1.66734
rclavicle -3.40916e-014 5.56597e-014
rhumerus -54.4008 21.9369 -87.1074
rradius 29.5121
rwrist -14.9
rhand 13.9988 13.5584
rfingers 7.12502
rthumb 38.9085 -11.9878
lclavicle -3.40916e-014 5.56597e-014
lhumerus -58.3416 -4.97351 92.3563
lradius 29.9937
lwrist 1.20435
lhand 5.99276 13.2232
lfingers 7.12502
lthumb 31.3164 40.5639
rfemur -42.3347 3.67645 34.591
rtibia 30.1523
rfoot -30.403 -31.135
rtoes 17.6597
lfemur -19.7602 20.9913 -27.1885
ltibia 38.8517
lfoot 35.3934 40.3635
ltoes 16.8202
144
root 4.48067 16.5427 -15.1368 28.9339 7.90624 -4.04344
lowerback -17.5746 -0.270867 5.16985
upperback -11.2511 -1.03514 4.65432
thorax -2.25435 -0.614288 1.85711
lowerneck -13.5449 -2.65594 -0.624309
upperneck 42.4237 -2.88599 -2.61492
head 18.0651 -1.60228 -1.64337
rclavicle 1.66731e-014 -8.74653e-015
rhumerus -54.2681 21.4163 -86.7066
rradius 29.4959
rwrist -14.8027
rhand 13.9355 13.0977
rfingers 7.12502
rthumb 38.8487 -12.4655
lclavicle 1.66731e-014 -8.74653e-015
lhumerus -58.3937 -5.1815 92.5019
lradius 30.0582
lwrist 1.19857
lhand 6.06468 13.4391
lfingers 7.12502
lthumb 31.3849 40.7664
rfemur -42.5125 3.97902 34.4062
rtibia 30.29
rfoot -29.7642 -31.6749
rtoes 16.4146
lfemur -19.8806 20.8864 -27.2644
ltibia 38.9667
lfoot 40.4765 34.3477
ltoes 4.58002
145
root 4.4833 16.5509 -15.1349 28.926 7.89891 -4.05017
lowerback -17.6706 -0.264161 5.16301
upperback -11.2358 -1.03432 4.68764
thorax -2.18757 -0.611108 1.89529
lowerneck -13.4859 -2.65892 -0.629773
upperneck 42.4716 -2.89432 -2.60537
head 18.0781 -1.60435 -1.63956
rclavicle -1.21756e-015 -1.51076e-014
rhumerus -54.0913 21.056 -86.3519
rradius 29.43
rwrist -14.7698
rhand 13.7011 12.6235
rfingers 7.12502
rthumb 38.6276 -13.0022
lclavicle -1.21756e-015 -1.51076e-014
lhumerus -58.354 -5.06508 92.4438
lradius 30.1066
lwrist 0.797185
lhand 6.37809 13.6755
lfingers 7.12502
lthumb 31.6835 40.9444
rfemur -42.6944 4.12042 34.3056
rtibia 30.4138
rfoot -28.9614 -32.4609
rtoes 14.8916
lfemur -19.7689 20.8521 -27.2631
ltibia 38.7897
lfoot 34.0147 41.3788
ltoes 19.0272
146
root 4.48647 16.5542 -15.1373 28.9946 8.02689 -4.05164
lowerback -17.7659 -0.313739 5.22788
upperback -11.2854 -1.1126 4.72912
thorax -2.19482 -0.652756 1.89151
lowerneck -13.5402 -2.62473 -0.567385
upperneck 42.645 -2.84129 -2.65852
head 18.1959 -1.57788 -1.67414
rclavicle 1.32192e-014 -1.03368e-014
rhumerus -53.9383 20.7844 -86.1286
rradius 29.2082
rwrist -14.8033
rhand 13.0047 12.4122
rfingers 7.12502
rthumb 37.9703 -13.3951
lclavicle 1.32192e-014 -1.03368e-014
lhumerus -58.4121 -4.91779 92.3501
lradius 30.1905
lwrist 0.454969
lhand 6.74823 13.8353
lfingers 7.12502
lthumb 32.036 41.034
rfemur -42.9138 4.22092 34.2387
rtibia 30.5224
rfoot -28.696 -32.9032
rtoes 14.1669
lfemur -19.8695 20.6812 -27.2567
ltibia 38.7761
lfoot 40.3104 34.9172
ltoes 5.31527
147
root 4.51056 16.5424 -15.0973 27.8542 7.18844 -4.49255
lowerback -17.2723 0.0439084 5.6726
upperback -10.7952 -0.702433 4.70392
thorax -1.92385 -0.463788 1.67178
lowerneck -13.9019 -2.59646 -0.403052
upperneck 42.9 -2.79205 -2.79752
head 18.4442 -1.54531 -1.78017
rclavicle -1.81391e-014 1.66979e-014
rhumerus -53.6291 20.4314 -85.8522
rradius 28.8576
rwrist -15.1067
rhand 11.6997 12.679
rfingers 7.12502
rthumb 36.7366 -13.4531
lclavicle -1.81391e-014 1.66979e-014
lhumerus -58.3069 -5.03211 92.4604
lradius 30.1847
lwrist 0.497351
lhand 6.83281 13.9132
lfingers 7.12502
lthumb 32.1165 41.0957
rfemur -41.4876 3.07756 35.0634
rtibia 30.5564
rfoot -27.823 -31.4976
rtoes 12.4332
lfemur -18.2951 21.7287 -26.7695
ltibia 38.6152
lfoot 34.3764 40.9452
ltoes 17.5596
148
root 4.48944 16.5538 -15.1397 28.988 7.96542 -4.099
lowerback -17.8339 -0.266069 5.25766
upperback -11.2365 -1.06354 4.7652
thorax -2.10679 -0.626577 1.91907
lowerneck -14.0959 -2.56649 -0.325305
upperneck 43.0117 -2.76174 -2.81915
head 18.5653 -1.52045 -1.80855
rclavicle -4.19933e-015 7.95139e-015
rhumerus -53.4149 20.0747 -85.5825
rradius 28.6196
rwrist -15.6724
rhand 10.3409 13.2703
rfingers 7.12502
rthumb 35.4496 -13.1795
lclavicle -4.19933e-015 7.95139e-015
lhumerus -58.1684 -5.12991 92.5783
lradius 30.1139
lwrist 0.577017
lhand 6.80153 13.8521
lfingers 7.12502
lthumb 32.0868 41.0406
rfemur -42.9658 4.2052 34.2741
rtibia 30.5832
rfoot -28.6509 -32.8914
rtoes 13.7622
lfemur -19.8982 20.6749 -27.2599
ltibia 38.7425
lfoot 42.5835 33.8667
ltoes 3.45473
149
root 4.49298 16.5508 -15.1293 28.6002 7.68855 -4.22789
lowerback -17.5616 -0.179903 5.30365
upperback -11.1885 -0.938577 4.80156
thorax -2.19501 -0.566231 1.95241
lowerneck -13.8532 -2.55966 -0.365318
upperneck 42.951 -2.75468 -2.7825
head 18.4626 -1.52073 -1.77331
rclavicle -2.77802e-014 4.92986e-014
rhumerus -53.4331 19.5593 -85.2146
rradius 28.5772
rwrist -16.1354
rhand 9.0863 13.7408
rfingers 7.12502
rthumb 34.2592 -12.985
lclavicle -2.77802e-014 4.92986e-014
lhumerus -58.1789 -5.05422 92.5858
lradius 30.0019
lwrist 0.405975
lhand 6.92209 13.8448
lfingers 7.12502
lthumb 32.2015 41.0101
rfemur -42.4403 4.33685 34.3244
rtibia 30.5523
rfoot -28.8686 -32.6765
rtoes 14.1398
lfemur -19.3725 21.033 -27.0904
ltibia 38.6916
lfoot 30.7221 43.8946
ltoes 23.9643
150
root 4.48827 16.5574 -15.1455 28.9468 7.95158 -4.01429
lowerback -17.6652 -0.318023 5.10632
upperback -11.3684 -1.08679 4.82285
thorax -2.33243 -0.632279 2.06621
lowerneck -13.758 -2.54383 -0.323443
upperneck 42.8935 -2.73615 -2.80314
head 18.3995 -1.51047 -1.78216
rclavicle 1.64494e-014 -8.74653e-015
rhumerus -53.2451 19.0685 -84.8489
rradius 28.4114
rwrist -16.6697
rhand 8.06292 13.8284
rfingers 7.12502
rthumb 33.2869 -13.1108
lclavicle 1.64494e-014 -8.74653e-015
lhumerus -58.0883 -4.9059 92.4924
lradius 29.9357
lwrist 0.171489
lhand 7.16064 14.0192
lfingers 7.12502
lthumb 32.4286 41.1383
rfemur -42.9177 4.61094 33.973
rtibia 30.5876
rfoot -29.2496 -33.0307
rtoes 14.7939
lfemur -19.9217 20.6098 -27.3287
ltibia 38.86
lfoot 32.8604 44.8937
ltoes 22.2929
151
root 4.49594 16.553 -15.1328 28.6636 7.60047 -4.24809
lowerback -17.6283 -0.163969 5.26964
upperback -11.2022 -0.91806 4.85685
thorax -2.17416 -0.551979 2.03328
lowerneck -13.9506 -2.54181 -0.203032
upperneck 43.007 -2.74131 -2.88289
head 18.5172 -1.50132 -1.85265
rclavicle -9.96408e-015 -1.66979e-014
rhumerus -53.0282 18.6332 -84.6058
rradius 28.284
rwrist -17.3709
rhand 6.72173 13.917
rfingers 7.12502
rthumb 32.0108 -13.2868
lclavicle -9.96408e-015 -1.66979e-014
lhumerus -57.9625 -4.81362 92.4369
lradius 30.0352
lwrist 0.257775
lhand 7.28471 14.2967
lfingers 7.12502
lthumb 32.5467 41.3915
rfemur -42.5391 4.26337 34.3631
rtibia 30.5934
rfoot -28.693 -32.5596
rtoes 14.0429
lfemur -19.5341 20.9728 -27.1552
ltibia 38.8614
lfoot 34.5844 44.2583
ltoes 18.9353
